<mxfile host="app.diagrams.net" modified="2020-09-28T16:00:57.346Z" agent="5.0 (Windows NT 10.0; Win64; x64) AppleWebKit/537.36 (KHTML, like Gecko) Chrome/85.0.4183.121 Safari/537.36" etag="7XddIm6r5ejUEOk0zxOB" version="13.7.5" type="github">
  <diagram id="51FD_CmxDISkoAIh0EgZ" name="Page-1">
    <mxGraphModel dx="1888" dy="580" grid="1" gridSize="10" guides="1" tooltips="1" connect="1" arrows="1" fold="1" page="1" pageScale="1" pageWidth="850" pageHeight="1100" background="#FFFFFF" math="0" shadow="0">
      <root>
        <mxCell id="0" />
        <mxCell id="1" parent="0" />
        <mxCell id="289fhRH2at46OE4J4xK2-1" value="" style="rounded=0;whiteSpace=wrap;html=1;" vertex="1" parent="1">
          <mxGeometry x="-50" y="30" width="890" height="500" as="geometry" />
        </mxCell>
        <mxCell id="289fhRH2at46OE4J4xK2-2" value="" style="rounded=0;whiteSpace=wrap;html=1;" vertex="1" parent="1">
          <mxGeometry x="100" y="130" width="120" height="320" as="geometry" />
        </mxCell>
        <mxCell id="289fhRH2at46OE4J4xK2-4" value="" style="line;strokeWidth=2;html=1;" vertex="1" parent="1">
          <mxGeometry x="100" y="210" width="120" height="10" as="geometry" />
        </mxCell>
        <mxCell id="289fhRH2at46OE4J4xK2-5" value="" style="line;strokeWidth=2;html=1;" vertex="1" parent="1">
          <mxGeometry x="100" y="290" width="120" height="10" as="geometry" />
        </mxCell>
        <mxCell id="289fhRH2at46OE4J4xK2-6" value="" style="line;strokeWidth=2;html=1;" vertex="1" parent="1">
          <mxGeometry x="100" y="370" width="120" height="10" as="geometry" />
        </mxCell>
        <mxCell id="289fhRH2at46OE4J4xK2-8" value="" style="edgeStyle=isometricEdgeStyle;endArrow=none;html=1;" edge="1" parent="1">
          <mxGeometry width="50" height="100" relative="1" as="geometry">
            <mxPoint x="147.14" y="170" as="sourcePoint" />
            <mxPoint x="157.14" y="90" as="targetPoint" />
          </mxGeometry>
        </mxCell>
        <mxCell id="289fhRH2at46OE4J4xK2-9" value="&lt;b&gt;&lt;font style=&quot;font-size: 19px&quot;&gt;T1&lt;/font&gt;&lt;/b&gt;" style="text;html=1;strokeColor=none;fillColor=none;align=center;verticalAlign=middle;whiteSpace=wrap;rounded=0;" vertex="1" parent="1">
          <mxGeometry x="130" y="60" width="40" height="20" as="geometry" />
        </mxCell>
        <mxCell id="289fhRH2at46OE4J4xK2-10" value="&lt;b&gt;&lt;font style=&quot;font-size: 19px&quot;&gt;RUNTIME STACK&lt;/font&gt;&lt;/b&gt;" style="text;html=1;strokeColor=none;fillColor=none;align=center;verticalAlign=middle;whiteSpace=wrap;rounded=0;" vertex="1" parent="1">
          <mxGeometry x="130" y="460" width="40" height="20" as="geometry" />
        </mxCell>
        <mxCell id="289fhRH2at46OE4J4xK2-26" value="" style="rounded=0;whiteSpace=wrap;html=1;" vertex="1" parent="1">
          <mxGeometry x="400" y="115" width="120" height="320" as="geometry" />
        </mxCell>
        <mxCell id="289fhRH2at46OE4J4xK2-27" value="" style="line;strokeWidth=2;html=1;" vertex="1" parent="1">
          <mxGeometry x="400" y="190" width="120" height="10" as="geometry" />
        </mxCell>
        <mxCell id="289fhRH2at46OE4J4xK2-28" value="" style="line;strokeWidth=2;html=1;" vertex="1" parent="1">
          <mxGeometry x="400" y="285" width="120" height="10" as="geometry" />
        </mxCell>
        <mxCell id="289fhRH2at46OE4J4xK2-29" value="" style="line;strokeWidth=2;html=1;" vertex="1" parent="1">
          <mxGeometry x="400" y="360" width="120" height="10" as="geometry" />
        </mxCell>
        <mxCell id="289fhRH2at46OE4J4xK2-30" value="" style="edgeStyle=isometricEdgeStyle;endArrow=none;html=1;" edge="1" parent="1">
          <mxGeometry width="50" height="100" relative="1" as="geometry">
            <mxPoint x="437.1399999999999" y="150" as="sourcePoint" />
            <mxPoint x="447.1399999999999" y="70" as="targetPoint" />
          </mxGeometry>
        </mxCell>
        <mxCell id="289fhRH2at46OE4J4xK2-31" value="&lt;b&gt;&lt;font style=&quot;font-size: 19px&quot;&gt;T2&lt;/font&gt;&lt;/b&gt;" style="text;html=1;strokeColor=none;fillColor=none;align=center;verticalAlign=middle;whiteSpace=wrap;rounded=0;" vertex="1" parent="1">
          <mxGeometry x="425" y="50" width="40" height="20" as="geometry" />
        </mxCell>
        <mxCell id="289fhRH2at46OE4J4xK2-32" value="&lt;b&gt;&lt;font style=&quot;font-size: 19px&quot;&gt;RUNTIME STACK&lt;/font&gt;&lt;/b&gt;" style="text;html=1;strokeColor=none;fillColor=none;align=center;verticalAlign=middle;whiteSpace=wrap;rounded=0;" vertex="1" parent="1">
          <mxGeometry x="450" y="450" width="40" height="20" as="geometry" />
        </mxCell>
        <mxCell id="289fhRH2at46OE4J4xK2-33" value="" style="rounded=0;whiteSpace=wrap;html=1;" vertex="1" parent="1">
          <mxGeometry x="640" y="110" width="120" height="320" as="geometry" />
        </mxCell>
        <mxCell id="289fhRH2at46OE4J4xK2-34" value="" style="line;strokeWidth=2;html=1;" vertex="1" parent="1">
          <mxGeometry x="640" y="190" width="120" height="10" as="geometry" />
        </mxCell>
        <mxCell id="289fhRH2at46OE4J4xK2-35" value="" style="line;strokeWidth=2;html=1;" vertex="1" parent="1">
          <mxGeometry x="640" y="270" width="120" height="10" as="geometry" />
        </mxCell>
        <mxCell id="289fhRH2at46OE4J4xK2-36" value="" style="line;strokeWidth=2;html=1;" vertex="1" parent="1">
          <mxGeometry x="640" y="350" width="120" height="10" as="geometry" />
        </mxCell>
        <mxCell id="289fhRH2at46OE4J4xK2-37" value="" style="edgeStyle=isometricEdgeStyle;endArrow=none;html=1;" edge="1" parent="1">
          <mxGeometry width="50" height="100" relative="1" as="geometry">
            <mxPoint x="687.1399999999999" y="150" as="sourcePoint" />
            <mxPoint x="697.1399999999999" y="70" as="targetPoint" />
          </mxGeometry>
        </mxCell>
        <mxCell id="289fhRH2at46OE4J4xK2-38" value="&lt;b&gt;&lt;font style=&quot;font-size: 19px&quot;&gt;T3&lt;/font&gt;&lt;/b&gt;" style="text;html=1;strokeColor=none;fillColor=none;align=center;verticalAlign=middle;whiteSpace=wrap;rounded=0;" vertex="1" parent="1">
          <mxGeometry x="670" y="40" width="40" height="20" as="geometry" />
        </mxCell>
        <mxCell id="289fhRH2at46OE4J4xK2-39" value="&lt;b&gt;&lt;font style=&quot;font-size: 19px&quot;&gt;RUNTIME STACK&lt;/font&gt;&lt;/b&gt;" style="text;html=1;strokeColor=none;fillColor=none;align=center;verticalAlign=middle;whiteSpace=wrap;rounded=0;" vertex="1" parent="1">
          <mxGeometry x="670" y="440" width="40" height="20" as="geometry" />
        </mxCell>
        <mxCell id="289fhRH2at46OE4J4xK2-42" value="" style="edgeStyle=elbowEdgeStyle;elbow=vertical;endArrow=classic;html=1;" edge="1" parent="1">
          <mxGeometry width="50" height="50" relative="1" as="geometry">
            <mxPoint x="220" y="350" as="sourcePoint" />
            <mxPoint x="270" y="300" as="targetPoint" />
          </mxGeometry>
        </mxCell>
        <mxCell id="289fhRH2at46OE4J4xK2-43" value="&lt;b&gt;&lt;font style=&quot;font-size: 17px&quot;&gt;STACK MEMORY&lt;/font&gt;&lt;/b&gt;" style="text;html=1;strokeColor=none;fillColor=none;align=center;verticalAlign=middle;whiteSpace=wrap;rounded=0;" vertex="1" parent="1">
          <mxGeometry x="375" y="560" width="40" height="20" as="geometry" />
        </mxCell>
        <mxCell id="289fhRH2at46OE4J4xK2-44" value="STACK FRAME" style="text;html=1;strokeColor=none;fillColor=none;align=center;verticalAlign=middle;whiteSpace=wrap;rounded=0;fontStyle=1;fontSize=18;" vertex="1" parent="1">
          <mxGeometry x="270" y="270" width="40" height="20" as="geometry" />
        </mxCell>
      </root>
    </mxGraphModel>
  </diagram>
</mxfile>
